<?xml version="1.0" encoding="iso-8859-1"?>
<!-- Generator: Adobe Illustrator 19.0.0, SVG Export Plug-In . SVG Version: 6.00 Build 0)  -->
<svg version="1.1" id="Layer_1" xmlns="http://www.w3.org/2000/svg" xmlns:xlink="http://www.w3.org/1999/xlink" x="0px" y="0px"
	 viewBox="0 0 511.988 511.988" style="enable-background:new 0 0 511.988 511.988;" xml:space="preserve">
<g>
	<path style="fill:#434A54;" d="M501.332,511.982H10.671C4.781,511.982,0,507.201,0,501.31c0-5.89,4.781-10.655,10.671-10.655
		h490.661c5.875,0,10.656,4.766,10.656,10.655C511.988,507.201,507.207,511.982,501.332,511.982z"/>
	<path style="fill:#434A54;" d="M501.332,447.984H10.671C4.781,447.984,0,443.203,0,437.313c0-5.891,4.781-10.656,10.671-10.656
		h490.661c5.875,0,10.656,4.766,10.656,10.656C511.988,443.203,507.207,447.984,501.332,447.984z"/>
	<path style="fill:#434A54;" d="M501.332,383.987H10.671C4.781,383.987,0,379.206,0,373.315c0-5.89,4.781-10.671,10.671-10.671
		h490.661c5.875,0,10.656,4.781,10.656,10.671C511.988,379.206,507.207,383.987,501.332,383.987z"/>
	<path style="fill:#434A54;" d="M501.332,319.99H10.671C4.781,319.99,0,315.209,0,309.318s4.781-10.672,10.671-10.672h490.661
		c5.875,0,10.656,4.781,10.656,10.672S507.207,319.99,501.332,319.99z"/>
	<path style="fill:#434A54;" d="M501.332,255.992H10.671C4.781,255.992,0,251.211,0,245.32s4.781-10.671,10.671-10.671h490.661
		c5.875,0,10.656,4.78,10.656,10.671S507.207,255.992,501.332,255.992z"/>
	<path style="fill:#434A54;" d="M501.332,191.978H10.671C4.781,191.978,0,187.213,0,181.323c0-5.891,4.781-10.672,10.671-10.672
		h490.661c5.875,0,10.656,4.781,10.656,10.672C511.988,187.213,507.207,191.978,501.332,191.978z"/>
	<path style="fill:#434A54;" d="M501.332,127.981H10.671C4.781,127.981,0,123.216,0,117.325s4.781-10.672,10.671-10.672h490.661
		c5.875,0,10.656,4.781,10.656,10.672S507.207,127.981,501.332,127.981z"/>
	<path style="fill:#434A54;" d="M501.332,63.984H10.671C4.781,63.984,0,59.218,0,53.312c0-5.89,4.781-10.656,10.671-10.656h490.661
		c5.875,0,10.656,4.766,10.656,10.656C511.988,59.218,507.207,63.984,501.332,63.984z"/>
</g>
<path style="fill:#656D78;" d="M460.209,386.347l-1.812-0.531c-26.469-7.109-35.405-13.937-47.187-18.421
	c-41.811-15.922-52.685-27.39-55.466-32.812c-0.094-0.203-0.188-0.406-0.281-0.609l-0.343-48.545l-99.13-1.125l-99.121,1.125
	l-0.344,48.545c-0.094,0.203-0.172,0.406-0.266,0.609c-2.781,5.422-13.656,16.89-55.451,32.812
	c-11.781,4.484-20.749,11.312-47.217,18.421l-1.812,0.531c-24.093,7.968-40.311,30.311-40.311,55.529v70.106H255.99h244.529v-70.106
	C500.519,416.657,484.301,394.314,460.209,386.347z"/>
<path style="fill:#DBAFA5;" d="M355.744,334.583c-0.094-0.203-0.188-0.406-0.281-0.609l-0.343-48.545l-99.13-1.125l-99.121,1.125
	l-0.344,48.545c-0.094,0.203-0.172,0.406-0.266,0.609c-2.641,5.141-12.593,15.749-49.374,30.452
	c20.953,13.796,70.779,39.841,148.417,39.841c76.505,0,128.502-25.279,151.346-39.231
	C368.618,350.629,358.432,339.802,355.744,334.583z"/>
<path style="fill:#EAC6BB;" d="M393.555,191.025c0,89.372-85.215,171.619-137.549,171.619c-52.358,0-137.558-82.247-137.558-171.619
	S180.024,42.687,256.006,42.687C331.964,42.687,393.555,101.654,393.555,191.025z"/>
<path style="fill:#434A54;" d="M418.679,370.629c-2.5-1.172-4.938-2.25-7.469-3.234c-6.343-2.406-11.937-4.703-16.905-6.906
	c-6.031,3.359-13.438,7.109-22.187,10.844c-24.404,10.437-64.497,22.889-116.815,22.889c-52.17,0-90.887-12.374-114.183-22.764
	c-8.953-3.969-16.359-7.984-22.218-11.5c-5.281,2.359-11.281,4.844-18.093,7.438c-1.969,0.75-3.844,1.562-5.734,2.422
	c6.859,4.983,19,12.858,36.343,20.67c25.343,11.437,67.419,25.062,123.886,25.062c56.412,0,99.724-13.594,126.127-24.983
	C398.742,383.097,411.272,375.581,418.679,370.629z"/>
<path style="fill:#ED5564;" d="M393.555,191.025c0-10.812-0.906-21.171-2.625-31.03H121.073c-1.719,9.859-2.625,20.218-2.625,31.03
	c0,11.156,1.328,22.187,3.75,32.967h267.606C392.211,213.212,393.555,202.181,393.555,191.025z"/>
<g>
	<path style="fill:#EAC6BB;" d="M341.339,191.994c0,11.781-14.344,21.327-31.999,21.327c-17.687,0-31.999-9.546-31.999-21.327
		c0-11.78,14.312-21.327,31.999-21.327C326.995,170.667,341.339,180.214,341.339,191.994z"/>
	<ellipse style="fill:#EAC6BB;" cx="202.664" cy="191.994" rx="31.999" ry="21.327"/>
</g>
<path style="fill:#656D78;" d="M393.555,189.963c-3.906-93.512-5.125-119.464-55.528-159.541
	c-82.036-65.247-208.578-5.219-208.578-5.219l22.843,16.016c0,0-83.653,55.232-62.623,193.445
	c2.578,16.983,117.948-115.339,240.67-108.137L393.555,189.963z"/>
<path style="fill:#FFCE54;" d="M394.523,383.987H117.652c-5.891,0-10.656,4.765-10.656,10.655V501.31
	c0,5.891,4.766,10.672,10.656,10.672h276.872c5.875,0,10.656-4.781,10.656-10.672V394.642
	C405.18,388.752,400.398,383.987,394.523,383.987z"/>
<g>
	<path style="fill:#434A54;" d="M191.993,479.702c-2.719,0-5.453-1.031-7.531-3.125l-42.67-42.654
		c-4.172-4.172-4.172-10.922,0-15.094c4.156-4.172,10.921-4.172,15.078,0l42.67,42.67c4.171,4.156,4.171,10.922,0,15.078
		C197.461,478.671,194.726,479.702,191.993,479.702z"/>
	<path style="fill:#434A54;" d="M149.51,479.702c-2.734,0-5.468-1.031-7.546-3.125c-4.172-4.156-4.172-10.922,0-15.078l42.67-42.67
		c4.171-4.172,10.921-4.172,15.077,0c4.171,4.172,4.171,10.922,0,15.094l-42.654,42.654
		C154.963,478.671,152.228,479.702,149.51,479.702z"/>
	<path style="fill:#434A54;" d="M362.65,479.702c-2.719,0-5.438-1.031-7.53-3.125l-42.655-42.654
		c-4.188-4.172-4.188-10.922,0-15.094c4.155-4.172,10.905-4.172,15.062,0l42.686,42.67c4.156,4.156,4.156,10.922,0,15.078
		C368.118,478.671,365.399,479.702,362.65,479.702z"/>
	<path style="fill:#434A54;" d="M320.182,479.702c-2.75,0-5.469-1.031-7.562-3.125c-4.156-4.156-4.156-10.922,0-15.078l42.686-42.67
		c4.156-4.172,10.905-4.172,15.062,0c4.188,4.172,4.188,10.922,0,15.094l-42.654,42.654
		C325.62,478.671,322.901,479.702,320.182,479.702z"/>
	<path style="fill:#434A54;" d="M277.341,479.702c-2.75,0-5.477-1.031-7.555-3.125l-42.67-42.654
		c-4.156-4.172-4.156-10.922,0-15.094c4.171-4.172,10.921-4.172,15.093,0l42.663,42.67c4.156,4.156,4.156,10.922,0,15.078
		C282.778,478.671,280.059,479.702,277.341,479.702z"/>
	<path style="fill:#434A54;" d="M234.834,479.702c-2.719,0-5.453-1.031-7.531-3.125c-4.172-4.156-4.172-10.922,0-15.078
		l42.654-42.67c4.164-4.172,10.914-4.172,15.102,0c4.156,4.172,4.156,10.922,0,15.094l-42.678,42.654
		C240.303,478.671,237.569,479.702,234.834,479.702z"/>
</g>
<g>
</g>
<g>
</g>
<g>
</g>
<g>
</g>
<g>
</g>
<g>
</g>
<g>
</g>
<g>
</g>
<g>
</g>
<g>
</g>
<g>
</g>
<g>
</g>
<g>
</g>
<g>
</g>
<g>
</g>
</svg>
